<?xml version="1.0" standalone="no"?>
<!DOCTYPE svg PUBLIC "-//W3C//DTD SVG 20010904//EN"
 "http://www.w3.org/TR/2001/REC-SVG-20010904/DTD/svg10.dtd">
<svg version="1.0" xmlns="http://www.w3.org/2000/svg"
 width="256.000000pt" height="256.000000pt" viewBox="0 0 256.000000 256.000000"
 preserveAspectRatio="xMidYMid meet">
<metadata>
Created by potrace 1.16, written by Peter Selinger 2001-2019
</metadata>
<g transform="translate(0.000000,256.000000) scale(0.100000,-0.100000)"
fill="#000000" stroke="none">
<path d="M1030 2145 c-36 -7 -186 -34 -335 -60 -148 -27 -271 -49 -273 -51 -2
-1 5 -50 14 -108 14 -79 22 -106 33 -106 17 0 217 33 331 55 202 38 238 45
282 51 25 3 60 3 77 -1 l31 -7 0 -143 0 -143 -52 -30 c-56 -31 -144 -114 -154
-144 -3 -10 -9 -18 -13 -18 -4 0 -18 -22 -31 -50 -13 -27 -26 -50 -30 -50 -6
0 -40 -70 -60 -125 -4 -11 -15 -38 -23 -60 -23 -59 -44 -132 -58 -200 -15 -75
-5 -295 14 -307 9 -6 9 -8 0 -8 -18 0 25 -115 67 -179 63 -100 198 -192 320
-220 57 -13 172 -13 228 -1 169 39 329 191 380 360 71 233 0 562 -179 831 -61
91 -102 132 -174 174 l-45 27 0 119 c0 105 2 119 17 119 9 0 83 -14 163 -31
l145 -30 220 44 c121 24 220 48 220 53 0 38 -41 214 -49 214 -6 -1 -98 -18
-204 -39 l-193 -39 -137 29 c-270 58 -430 89 -448 88 -11 -1 -48 -7 -84 -14z"/>
</g>
</svg>
